<svg width="25" height="25" viewBox="0 0 25 25" fill="none" xmlns="http://www.w3.org/2000/svg">
<path opacity="0.2" d="M15.5 4.07031C15.988 4.71886 16.2512 5.50873 16.25 6.32031V7.07031H8.75V6.32031C8.74877 5.50873 9.01205 4.71886 9.49995 4.07031H5.75C5.65151 4.07031 5.55398 4.08971 5.46298 4.1274C5.37199 4.16509 5.28931 4.22033 5.21966 4.28998C5.15002 4.35962 5.09477 4.4423 5.05708 4.5333C5.01939 4.62429 5 4.72182 5 4.82031V20.5703C5 20.6688 5.01939 20.7663 5.05708 20.8573C5.09477 20.9483 5.15002 21.031 5.21966 21.1006C5.28931 21.1703 5.37199 21.2255 5.46298 21.2632C5.55398 21.3009 5.65151 21.3203 5.75 21.3203H19.25C19.3485 21.3203 19.446 21.3009 19.537 21.2632C19.628 21.2255 19.7107 21.1703 19.7803 21.1006C19.85 21.031 19.9052 20.9483 19.9429 20.8573C19.9806 20.7663 20 20.6688 20 20.5703V4.82031C20 4.72182 19.9806 4.62429 19.9429 4.5333C19.9052 4.4423 19.85 4.35962 19.7803 4.28998C19.7107 4.22033 19.628 4.16509 19.537 4.1274C19.446 4.08971 19.3485 4.07031 19.25 4.07031H15.5Z" fill="#6E7485"/>
<path d="M9.5 14.5703H15.5" stroke="#6E7485" stroke-width="1.5" stroke-linecap="round" stroke-linejoin="round"/>
<path d="M9.5 11.5703H15.5" stroke="#6E7485" stroke-width="1.5" stroke-linecap="round" stroke-linejoin="round"/>
<path d="M15.5002 4.07031H19.25C19.4489 4.07031 19.6397 4.14933 19.7803 4.28998C19.921 4.43063 20 4.6214 20 4.82031V20.5703C20 20.7692 19.921 20.96 19.7803 21.1006C19.6397 21.2413 19.4489 21.3203 19.25 21.3203H5.75C5.55109 21.3203 5.36032 21.2413 5.21967 21.1006C5.07902 20.96 5 20.7692 5 20.5703V4.82031C5 4.6214 5.07902 4.43063 5.21967 4.28998C5.36032 4.14933 5.55109 4.07031 5.75 4.07031H9.4998" stroke="#6E7485" stroke-width="1.5" stroke-linecap="round" stroke-linejoin="round"/>
<path d="M8.75 7.07031V6.32031C8.75 5.32575 9.14509 4.37192 9.84835 3.66866C10.5516 2.9654 11.5054 2.57031 12.5 2.57031C13.4946 2.57031 14.4484 2.9654 15.1517 3.66866C15.8549 4.37192 16.25 5.32575 16.25 6.32031V7.07031H8.75Z" stroke="#6E7485" stroke-width="1.5" stroke-linecap="round" stroke-linejoin="round"/>
</svg>
