<svg
  width="25"
  height="25"
  viewBox="0 0 25 25"
  fill="none"
  xmlns="http://www.w3.org/2000/svg"
  preserveAspectRatio="xMidYMid meet"
>
  <g>
    <path
      opacity="0.2"
      d="M14 3.32031C12.22 3.32031 10.4799 3.84815 8.99987 4.83709C7.51983 5.82602 6.36628 7.23163 5.68509 8.87616C5.0039 10.5207 4.82567 12.3303 5.17294 14.0761C5.5202 15.822 6.37737 17.4256 7.63604 18.6843C8.89472 19.9429 10.4984 20.8001 12.2442 21.1474C13.99 21.4946 15.7996 21.3164 17.4442 20.6352C19.0887 19.954 20.4943 18.8005 21.4832 17.3204C22.4722 15.8404 23 14.1003 23 12.3203C23 11.1384 22.7672 9.96809 22.3149 8.87616C21.8626 7.78423 21.1997 6.79207 20.364 5.95634C19.5282 5.12062 18.5361 4.45768 17.4442 4.00539C16.3522 3.5531 15.1819 3.32031 14 3.32031ZM12.5 15.3203V9.32031L17 12.3203L12.5 15.3203Z"
      fill="#6E7485"
    />
    <path
      d="M14 21.3203C18.9706 21.3203 23 17.2909 23 12.3203C23 7.34975 18.9706 3.32031 14 3.32031C9.02944 3.32031 5 7.34975 5 12.3203C5 17.2909 9.02944 21.3203 14 21.3203Z"
      stroke="#6E7485"
      stroke-width="1.5"
      stroke-miterlimit="10"
    />
    <path
      d="M17 12.3203L12.5 9.32031V15.3203L17 12.3203Z"
      stroke="#6E7485"
      stroke-width="1.5"
      stroke-linecap="round"
      stroke-linejoin="round"
    />
  </g>
</svg>
